<svg xmlns="http://www.w3.org/2000/svg" width="720" height="240"><defs><clipPath id="a" clipPathUnits="userSpaceOnUse"><path d="M1063.385 483.146a18.9 18.9 0 0 0-17.53 14.036c-2.683 10.014 3.292 20.361 13.43 23.078 10.015 2.683 20.362-3.29 23.045-13.305 2.717-10.138-3.259-20.484-13.273-23.168a19 19 0 0 0-5.672-.64m-320.543 25.995c-1.096.018-2.095.722-2.414 1.912l-.067.246-14.136 65.12c-.241 1.394.45 2.771 1.687 3.102l.248.067 23.418 5.082c1.393.24 2.68-.606 3.078-2.09l9.8-45.476c7.623 2.705 8.828 8.592 6.1 21.246l-5.753 26.42c-.241 1.393.45 2.77 1.687 3.101l.246.066 23.328 4.926c1.394.241 2.681-.608 3.079-2.092l9.601-44.734c6.783 2.878 8.054 8.519 5.094 22.037-5.043 24.755 13.341 33.788 15.072 34.252 1.237.331 2.483.136 4.174-.736 0 0 13.192-7.2 13.258-7.447.907-.42 1.354-1.095 1.52-1.713.364-1.36-.788-2.994-1.364-3.81-4.585-6.133-4.323-12.555-2.664-20.724 4.67-22.866-7.603-40.864-29.363-46.695-6.924-1.855-14.83-2.517-23.537-1.67-4.325-3.146-9.286-5.403-14.85-6.894-5.935-1.59-12.381-2.256-19.25-1.844l-7.518-1.617a2.7 2.7 0 0 0-.474-.035m198.822.539c-3.328 0-3.585 2.432-3.713 3.968-.384 5.504-.638 10.752-.894 15.616l-8.194-.512a2.8 2.8 0 0 0-2.814 2.56l-1.537 21.249c0 1.408 1.152 2.688 2.56 2.816l9.6.512c.64 32.384 7.808 43.648 28.416 47.744.384.128.768.127 1.152.127 1.92 0 3.072-1.28 4.096-3.711l6.656-16.13c.128-.383.256-.767.256-1.023 0-1.408-1.535-1.92-2.943-2.56-5.632-2.432-7.168-11.264-7.168-22.912l8.447.385h.256c1.408 0 2.432-1.152 2.56-2.432l1.536-21.248c0-1.536-1.151-2.816-2.559-2.816l-8.832-.512c.384-5.376.767-11.009 1.023-16.385 0-2.176-1.025-3.456-3.2-3.584l-24.192-1.152zm-239.58 3.826q-.524.026-1.139.14l-21.886 3.877-.62.166c-1.483.398-2.495 1.067-3.005 2.131-5.385-.81-11.809-.547-17.99 1.11-24.481 6.56-29.26 30.765-25.284 45.601 5.334 19.906 27.378 30.962 48.026 25.43 6.305-1.69 12.584-4.963 18.119-10.023 7.739 4.154 16.923 3.813 18.16 3.482 1.607-.43 2.546-1.875 3.096-4.275l3.656-17.014q.173-.841.074-1.213c-.331-1.236-1.89-1.614-3.293-1.9-4.52-1.042-7.303-5.994-9.291-13.413-2.186-8.16-3.34-19.38-4.623-31.095l-.164-.617c-.348-1.299-1.385-2.515-3.836-2.387m320.412 3.838c-6.4 0-13.057 1.025-19.969 3.2l-14.847.769c-1.408 0-2.56 1.28-2.56 2.816l3.583 66.559c0 1.536 1.28 2.56 2.817 2.56l25.472-1.408a2.57 2.57 0 0 0 2.56-2.56v-.257l-2.433-45.31c2.048-.512 3.841-.77 5.633-.77 2.176 0 4.352.386 6.4 1.026.512.128 1.024.256 1.408.256 1.537 0 2.816-.898 3.2-2.69l3.713-18.047c.128-.64.256-1.152.256-1.664 0-1.536-.77-2.56-2.69-3.072a57 57 0 0 0-12.543-1.408m-135.92.64c-29.184 0-42.111 19.2-42.111 37.504 0 19.456 14.59 39.295 43.646 39.295h1.537c3.712 0 5.377-1.792 6.4-3.84 1.92-4.352 5.249-13.056 5.249-14.336 0-2.176-2.177-3.328-3.969-3.328h-.256c-.896.128-1.92.13-2.816.13-16 0-22.656-10.24-22.656-19.329 0-7.936 5.12-13.312 11.263-13.312 5.376 0 7.809 4.096 7.809 5.248 0 1.792-.897 2.048-7.553 3.584-1.664.384-2.687 1.023-2.687 2.431 0 .512 2.432 8.833 3.968 13.057.512 1.536 1.152 2.432 3.2 2.432 6.656-.256 16.128-1.663 22.144-3.711 7.552-2.56 9.985-7.425 9.985-13.313 0-4.224-1.409-32.512-33.153-32.512m317.295 0c-29.184 0-42.111 19.2-42.111 37.504 0 19.456 14.592 39.295 43.648 39.295h1.535c3.712 0 5.377-1.792 6.4-3.84 1.92-4.352 5.249-13.056 5.249-14.336 0-2.176-2.177-3.328-3.969-3.328h-.256c-.896.128-1.918.13-2.814.13-16 0-22.656-10.24-22.656-19.329 0-7.936 5.12-13.312 11.263-13.312 5.376 0 7.809 4.096 7.809 5.248 0 1.792-.897 2.048-7.553 3.584-1.664.384-2.687 1.023-2.687 2.431 0 .512 2.43 8.833 3.966 13.057.512 1.536 1.154 2.432 3.202 2.432 6.656-.256 16.126-1.663 22.142-3.711 7.552-2.56 9.984-7.425 9.984-13.313 0-4.224-1.408-32.512-33.152-32.512m-92.527 1.36c-4.608 0-9.344.513-14.336 1.537l-14.336-.77h-.256c-1.28 0-2.432 1.153-2.56 2.56l-3.456 66.561c0 1.536 1.023 2.689 2.559 2.817l25.602 1.28h.255c1.28 0 2.432-1.153 2.432-2.433l2.432-46.464c9.344.512 15.873 6.144 15.873 19.584v4.351c0 22.784 20.479 29.569 22.783 29.569 1.152 0 2.43-.385 3.71-1.409 0 0 12.675-9.087 12.675-9.343.896-.64 1.279-1.408 1.279-2.176 0-1.408-1.28-2.688-2.049-3.328-5.248-4.864-6.912-10.623-6.912-17.791v-4.225c0-24.448-19.711-40.32-45.695-40.32m-64.637 1.222c-1.268 0-2.299.81-2.646 2.108l-13.041 61.04c-.241 1.394.448 2.772 1.808 3.136l.248.066 25.059 5.39c1.27.208 2.68-.607 3.012-1.843l.066-.248 13.074-61.164c.331-1.237-.483-2.647-1.719-2.979l-.246-.066-25.059-5.389a3 3 0 0 0-.556-.05zm-374.78 21.198c2.683-.073 5.223.787 6.833 2.343.746 3.776 1.517 7.147 2.379 10.362a94 94 0 0 0 3.433 10.343c-2.512 1.999-5.098 3.22-7.447 3.85-8.037 2.153-14.45-2.488-16.305-9.412-1.69-6.306.617-15.007 8.407-17.094a11.7 11.7 0 0 1 2.7-.392" style="font-weight:900;font-size:128px;line-height:1;font-family:&quot;FOT-Yuruka Std&quot;;-inkscape-font-specification:&quot;FOT-Yuruka Std Heavy&quot;;text-align:center;letter-spacing:0;word-spacing:0;text-anchor:middle;white-space:pre;fill:#fff;fill-opacity:1;stroke:none;stroke-width:32;stroke-linecap:square;stroke-linejoin:round;stroke-miterlimit:10;stroke-dasharray:none;stroke-opacity:1;paint-order:markers stroke fill"/></clipPath></defs><path d="M1063.385 483.146a18.9 18.9 0 0 0-17.53 14.036c-2.683 10.014 3.292 20.361 13.43 23.078 10.015 2.683 20.362-3.29 23.045-13.305 2.717-10.138-3.259-20.484-13.273-23.168a19 19 0 0 0-5.672-.64zm88.361 14.999a2.5 2.5 0 0 0-2.283 1.85l-2.2 8.208c-.582 1.968 2.417 2.773 2.897.777l2.07-7.726 9.178 2.457-1.552 5.797a1.5 1.5 0 0 0 1.06 1.836l5.795 1.552-.129.485c-.597 1.976 2.427 2.786 2.897.775l.648-2.414a1.5 1.5 0 0 0-.15-1.138l-4.95-8.575a1.5 1.5 0 0 0-.912-.697l-11.59-3.105a2.5 2.5 0 0 0-.779-.082zM840.5 500c-12.028 0-18.05 14.541-9.545 23.045C839.459 531.55 854 525.528 854 513.5c-.008-7.452-6.048-13.492-13.5-13.5Zm1.643 3.129A10.5 10.5 0 0 1 851 513.5c-.006 5.796-4.704 10.494-10.5 10.5-6.123-.001-10.946-5.22-10.465-11.324s6.06-10.504 12.108-9.547zm321.742 2.93 2.033 3.52-2.777-.745zm-318.201.959a1.5 1.5 0 0 0-.776.107l-7 3a1.5 1.5 0 0 0-.787.787l-3 7c-.524 1.243.73 2.492 1.97 1.963l7-3a1.5 1.5 0 0 0 .788-.787l3-7a1.5 1.5 0 0 0-1.195-2.07zm-102.842 2.123c-1.096.018-2.095.722-2.414 1.912l-.067.246-14.136 65.12c-.241 1.394.45 2.771 1.687 3.102l.248.067 23.418 5.082c1.393.24 2.68-.606 3.078-2.09l9.8-45.476c7.623 2.705 8.828 8.592 6.1 21.246l-5.753 26.42c-.241 1.393.45 2.77 1.687 3.101l.246.066 23.328 4.926c1.394.241 2.681-.608 3.079-2.092l9.601-44.734c6.783 2.878 8.054 8.519 5.094 22.037-5.043 24.755 13.341 33.788 15.072 34.252 1.237.331 2.483.136 4.174-.736 0 0 13.192-7.2 13.258-7.447.907-.42 1.354-1.095 1.52-1.713.364-1.36-.788-2.994-1.364-3.81-4.585-6.133-4.323-12.555-2.664-20.724 4.67-22.866-7.603-40.864-29.363-46.695-6.924-1.855-14.83-2.517-23.537-1.67-4.325-3.146-9.286-5.403-14.85-6.894-5.935-1.59-12.381-2.256-19.25-1.844l-7.518-1.617a2.7 2.7 0 0 0-.474-.035zm198.822.539c-3.328 0-3.585 2.432-3.713 3.968-.384 5.504-.638 10.752-.894 15.616l-8.194-.512a2.8 2.8 0 0 0-2.814 2.56l-1.537 21.249c0 1.408 1.152 2.688 2.56 2.816l9.6.512c.64 32.384 7.808 43.648 28.416 47.744.384.128.768.127 1.152.127 1.92 0 3.072-1.28 4.096-3.711l6.656-16.13c.128-.383.256-.767.256-1.023 0-1.408-1.535-1.92-2.943-2.56-5.632-2.432-7.168-11.264-7.168-22.912l8.447.385h.256c1.408 0 2.432-1.152 2.56-2.432l1.536-21.248c0-1.536-1.151-2.816-2.559-2.816l-8.832-.512c.384-5.376.767-11.009 1.023-16.385 0-2.176-1.025-3.456-3.2-3.584l-24.192-1.152zm-99.02 1.681-1.287 3-3 1.287 1.288-3zm305.58 1.348c-2.1-.078-4.117 1.477-4.74 3.8-.711 2.657.656 5.353 3.053 5.995a4.25 4.25 0 0 0 3.33-.51c1.711-1.038.154-3.604-1.557-2.566a1.28 1.28 0 0 1-.996.177c-.784-.21-1.212-1.273-.931-2.32.28-1.05 1.182-1.753 1.967-1.543.335.102.615.337.773.65.962 1.755 3.593.311 2.63-1.443a4.25 4.25 0 0 0-2.628-2.105q-.45-.12-.9-.135zm-446.14.797q-.525.026-1.139.14l-21.886 3.877-.62.166c-1.483.398-2.495 1.067-3.005 2.131-5.385-.81-11.809-.547-17.99 1.11-24.481 6.56-29.26 30.765-25.284 45.601 5.334 19.906 27.378 30.962 48.026 25.43 6.305-1.69 12.584-4.963 18.119-10.023 7.739 4.154 16.923 3.813 18.16 3.482 1.607-.43 2.546-1.875 3.096-4.275l3.656-17.014q.173-.841.074-1.213c-.331-1.236-1.89-1.614-3.293-1.9-4.52-1.042-7.303-5.994-9.291-13.413-2.186-8.16-3.34-19.38-4.623-31.095l-.164-.617c-.348-1.299-1.385-2.515-3.836-2.387zm453.578 1.31q-.555.02-1.045.186a3.06 3.06 0 0 0-1.865 1.799c-.416 1.02-.226 2.046.535 2.886.477.528 1.099.901 1.7 1.264.333.205.883.535 1.077.746a.3.3 0 0 1-.049.08c-.215.143-1.214-.095-1.976-.539-1.724-1.03-3.26 1.567-1.527 2.582a8 8 0 0 0 1.886.79c.78.208 1.696.301 2.55.015a3.1 3.1 0 0 0 1.903-1.818c.45-1.086.265-2.17-.51-3.059v.002c-.506-.582-1.195-1-1.806-1.367a10 10 0 0 1-.871-.568c.334-.064 1.215.158 1.93.56 1.717.928 3.16-1.593 1.49-2.603a8.6 8.6 0 0 0-1.389-.614q-1.104-.375-2.031-.342zm8.21 2.2a3.6 3.6 0 0 0-1.046.187 3.06 3.06 0 0 0-1.865 1.797c-.416 1.02-.226 2.046.535 2.887.477.527 1.099.903 1.7 1.265.333.205.885.535 1.08.746a.3.3 0 0 1-.05.079c-.215.142-1.214-.093-1.976-.538-1.744-1.114-3.343 1.588-1.527 2.58a8 8 0 0 0 1.886.79c.78.209 1.696.304 2.549.017a3.1 3.1 0 0 0 1.904-1.82c.45-1.086.265-2.17-.51-3.059v.004c-.506-.582-1.196-.999-1.806-1.367a10 10 0 0 1-.871-.568c.334-.063 1.212.156 1.927.558 1.736.995 3.228-1.608 1.493-2.603a8.6 8.6 0 0 0-1.389-.613q-1.106-.376-2.033-.342zm-141.376.328c-6.4 0-13.057 1.025-19.969 3.2l-14.847.769c-1.408 0-2.56 1.28-2.56 2.816l3.583 66.559c0 1.536 1.28 2.56 2.817 2.56l25.472-1.408a2.57 2.57 0 0 0 2.56-2.56v-.257l-2.433-45.31c2.048-.512 3.841-.77 5.633-.77 2.176 0 4.352.386 6.4 1.026.512.128 1.024.256 1.408.256 1.537 0 2.816-.898 3.2-2.69l3.713-18.047c.128-.64.256-1.152.256-1.664 0-1.536-.77-2.56-2.69-3.072a57 57 0 0 0-12.543-1.408zm-135.92.64c-29.184 0-42.111 19.2-42.111 37.504 0 19.456 14.59 39.295 43.646 39.295h1.537c3.712 0 5.377-1.792 6.4-3.84 1.92-4.352 5.249-13.056 5.249-14.336 0-2.176-2.177-3.328-3.969-3.328h-.256c-.896.128-1.92.13-2.816.13-16 0-22.656-10.24-22.656-19.329 0-7.936 5.12-13.312 11.263-13.312 5.376 0 7.809 4.096 7.809 5.248 0 1.792-.897 2.048-7.553 3.584-1.664.384-2.687 1.023-2.687 2.431 0 .512 2.432 8.833 3.968 13.057.512 1.536 1.152 2.432 3.2 2.432 6.656-.256 16.128-1.663 22.144-3.711 7.552-2.56 9.985-7.425 9.985-13.313 0-4.224-1.409-32.512-33.153-32.512zm317.295 0c-29.184 0-42.111 19.2-42.111 37.504 0 19.456 14.592 39.295 43.648 39.295h1.535c3.712 0 5.377-1.792 6.4-3.84 1.92-4.352 5.249-13.056 5.249-14.336 0-2.176-2.177-3.328-3.969-3.328h-.256c-.896.128-1.918.13-2.814.13-16 0-22.656-10.24-22.656-19.329 0-7.936 5.12-13.312 11.263-13.312 5.376 0 7.809 4.096 7.809 5.248 0 1.792-.897 2.048-7.553 3.584-1.664.384-2.687 1.023-2.687 2.431 0 .512 2.43 8.833 3.966 13.057.512 1.536 1.154 2.432 3.202 2.432 6.656-.256 16.126-1.663 22.142-3.711 7.552-2.56 9.984-7.425 9.984-13.313 0-4.224-1.408-32.512-33.152-32.512zm-92.527 1.36c-4.608 0-9.344.513-14.336 1.537l-14.336-.77h-.256c-1.28 0-2.432 1.153-2.56 2.56l-3.456 66.561c0 1.536 1.023 2.689 2.559 2.817l25.602 1.28h.255c1.28 0 2.432-1.153 2.432-2.433l2.432-46.464c9.344.512 15.873 6.144 15.873 19.584v4.351c0 22.784 20.479 29.569 22.783 29.569 1.152 0 2.43-.385 3.71-1.409 0 0 12.675-9.087 12.675-9.343.896-.64 1.279-1.408 1.279-2.176 0-1.408-1.28-2.688-2.049-3.328-5.248-4.864-6.912-10.623-6.912-17.791v-4.225c0-24.448-19.711-40.32-45.695-40.32zm-64.637 1.222c-1.268 0-2.299.81-2.646 2.108l-13.041 61.04c-.241 1.394.448 2.772 1.808 3.136l.248.066 25.059 5.39c1.27.208 2.68-.607 3.012-1.843l.066-.248 13.074-61.164c.331-1.237-.483-2.647-1.719-2.979l-.246-.066-25.059-5.389a3 3 0 0 0-.556-.05zm-374.78 21.198c2.683-.073 5.223.787 6.833 2.343.746 3.776 1.517 7.147 2.379 10.362a94 94 0 0 0 3.433 10.344c-2.512 1.998-5.098 3.22-7.447 3.85-8.037 2.152-14.45-2.49-16.305-9.413-1.69-6.306.617-15.007 8.407-17.094a11.7 11.7 0 0 1 2.7-.392zm240.005 41.48a1.5 1.5 0 0 0-1.393 1.881l.906 3.38-3.38.907c-1.855.56-1.111 3.338.775 2.897l3.38-.905 3.755 14.006a1.5 1.5 0 0 0 1.836 1.06l20.285-5.435a1.5 1.5 0 1 0-.778-2.898l-18.834 5.047-5.046-18.834a1.5 1.5 0 0 0-1.506-1.106zm7.806 3.387q-.947.036-1.883.205c-1.973.352-1.438 3.313.534 2.953a10.5 10.5 0 0 1 11.742 6.78 1.5 1.5 0 0 0 1.799.94l.12-.032a1.5 1.5 0 0 0 .907-1.926 13.5 13.5 0 0 0-13.219-8.92zm-193.855.281a2.5 2.5 0 0 0-2.283 1.85l-4.143 15.453a2.5 2.5 0 0 0 1.768 3.062l25.115 6.73a2.5 2.5 0 0 0 3.06-1.769l4.143-15.453a2.5 2.5 0 0 0-1.768-3.062l-25.115-6.73a2.5 2.5 0 0 0-.777-.08zm.484 3.108 24.149 6.47-3.883 14.49-24.149-6.47zm2.727 4.373a1.5 1.5 0 0 0-1.606 1.103l-1.295 4.83c-.518 1.932 2.38 2.71 2.899.778l.355-1.329.662 1.15a1.5 1.5 0 0 0 2.051.55l1.15-.664-.355 1.328c-.517 1.932 2.382 2.707 2.899.775l1.292-4.828c.35-1.291-1.038-2.36-2.197-1.691l-2.988 1.724-1.725-2.984a1.5 1.5 0 0 0-1.142-.742zm13.904 3.746a1.5 1.5 0 0 0-1.504 1.111l-.486 1.814-.047-.064a1.5 1.5 0 0 0-2.418 1.773l1.898 2.58a1.5 1.5 0 0 0 1.81.485l2.933-1.285c1.825-.806.624-3.545-1.206-2.748l-.072.033.485-1.813a1.5 1.5 0 0 0-1.393-1.886z" style="font-weight:900;font-size:128px;line-height:1;font-family:&quot;FOT-Yuruka Std&quot;;-inkscape-font-specification:&quot;FOT-Yuruka Std Heavy&quot;;text-align:center;letter-spacing:0;word-spacing:0;text-anchor:middle;white-space:pre;fill:none;fill-opacity:1;stroke:#fff;stroke-width:32;stroke-linecap:square;stroke-linejoin:round;stroke-miterlimit:10;stroke-dasharray:none;stroke-opacity:1;paint-order:markers stroke fill" transform="translate(-573.928 -428.6)"/><g stroke="none" clip-path="url(#a)" style="stroke:#fff;stroke-opacity:1" transform="translate(-573.928 -428.6)"><path d="M1063.385 483.146a18.9 18.9 0 0 0-17.53 14.036c-2.683 10.014 3.292 20.361 13.43 23.078 10.015 2.683 20.362-3.29 23.045-13.305 2.717-10.138-3.259-20.484-13.273-23.168a19 19 0 0 0-5.672-.64m-320.543 25.995c-1.096.018-2.095.722-2.414 1.912l-.067.246-14.136 65.12c-.241 1.394.45 2.771 1.687 3.102l.248.067 23.418 5.082c1.393.24 2.68-.606 3.078-2.09l9.8-45.476c7.623 2.705 8.828 8.592 6.1 21.246l-5.753 26.42c-.241 1.393.45 2.77 1.687 3.101l.246.066 23.328 4.926c1.394.241 2.681-.608 3.079-2.092l9.601-44.734c6.783 2.878 8.054 8.519 5.094 22.037-5.043 24.755 13.341 33.788 15.072 34.252 1.237.331 2.483.136 4.174-.736 0 0 13.192-7.2 13.258-7.447.907-.42 1.354-1.095 1.52-1.713.364-1.36-.788-2.994-1.364-3.81-4.585-6.133-4.323-12.555-2.664-20.724 4.67-22.866-7.603-40.864-29.363-46.695-6.924-1.855-14.83-2.517-23.537-1.67-4.325-3.146-9.286-5.403-14.85-6.894-5.935-1.59-12.381-2.256-19.25-1.844l-7.518-1.617a2.7 2.7 0 0 0-.474-.035m198.822.539c-3.328 0-3.585 2.432-3.713 3.968-.384 5.504-.638 10.752-.894 15.616l-8.194-.512a2.8 2.8 0 0 0-2.814 2.56l-1.537 21.249c0 1.408 1.152 2.688 2.56 2.816l9.6.512c.64 32.384 7.808 43.648 28.416 47.744.384.128.768.127 1.152.127 1.92 0 3.072-1.28 4.096-3.711l6.656-16.13c.128-.383.256-.767.256-1.023 0-1.408-1.535-1.92-2.943-2.56-5.632-2.432-7.168-11.264-7.168-22.912l8.447.385h.256c1.408 0 2.432-1.152 2.56-2.432l1.536-21.248c0-1.536-1.151-2.816-2.559-2.816l-8.832-.512c.384-5.376.767-11.009 1.023-16.385 0-2.176-1.025-3.456-3.2-3.584l-24.192-1.152zm-239.58 3.826q-.524.026-1.139.14l-21.886 3.877-.62.166c-1.483.398-2.495 1.067-3.005 2.131-5.385-.81-11.809-.547-17.99 1.11-24.481 6.56-29.26 30.765-25.284 45.601 5.334 19.906 27.378 30.962 48.026 25.43 6.305-1.69 12.584-4.963 18.119-10.023 7.739 4.154 16.923 3.813 18.16 3.482 1.607-.43 2.546-1.875 3.096-4.275l3.656-17.014q.173-.841.074-1.213c-.331-1.236-1.89-1.614-3.293-1.9-4.52-1.042-7.303-5.994-9.291-13.413-2.186-8.16-3.34-19.38-4.623-31.095l-.164-.617c-.348-1.299-1.385-2.515-3.836-2.387m320.412 3.838c-6.4 0-13.057 1.025-19.969 3.2l-14.847.769c-1.408 0-2.56 1.28-2.56 2.816l3.583 66.559c0 1.536 1.28 2.56 2.817 2.56l25.472-1.408a2.57 2.57 0 0 0 2.56-2.56v-.257l-2.433-45.31c2.048-.512 3.841-.77 5.633-.77 2.176 0 4.352.386 6.4 1.026.512.128 1.024.256 1.408.256 1.537 0 2.816-.898 3.2-2.69l3.713-18.047c.128-.64.256-1.152.256-1.664 0-1.536-.77-2.56-2.69-3.072a57 57 0 0 0-12.543-1.408m-135.92.64c-29.184 0-42.111 19.2-42.111 37.504 0 19.456 14.59 39.295 43.646 39.295h1.537c3.712 0 5.377-1.792 6.4-3.84 1.92-4.352 5.249-13.056 5.249-14.336 0-2.176-2.177-3.328-3.969-3.328h-.256c-.896.128-1.92.13-2.816.13-16 0-22.656-10.24-22.656-19.329 0-7.936 5.12-13.312 11.263-13.312 5.376 0 7.809 4.096 7.809 5.248 0 1.792-.897 2.048-7.553 3.584-1.664.384-2.687 1.023-2.687 2.431 0 .512 2.432 8.833 3.968 13.057.512 1.536 1.152 2.432 3.2 2.432 6.656-.256 16.128-1.663 22.144-3.711 7.552-2.56 9.985-7.425 9.985-13.313 0-4.224-1.409-32.512-33.153-32.512m317.295 0c-29.184 0-42.111 19.2-42.111 37.504 0 19.456 14.592 39.295 43.648 39.295h1.535c3.712 0 5.377-1.792 6.4-3.84 1.92-4.352 5.249-13.056 5.249-14.336 0-2.176-2.177-3.328-3.969-3.328h-.256c-.896.128-1.918.13-2.814.13-16 0-22.656-10.24-22.656-19.329 0-7.936 5.12-13.312 11.263-13.312 5.376 0 7.809 4.096 7.809 5.248 0 1.792-.897 2.048-7.553 3.584-1.664.384-2.687 1.023-2.687 2.431 0 .512 2.43 8.833 3.966 13.057.512 1.536 1.154 2.432 3.202 2.432 6.656-.256 16.126-1.663 22.142-3.711 7.552-2.56 9.984-7.425 9.984-13.313 0-4.224-1.408-32.512-33.152-32.512m-92.527 1.36c-4.608 0-9.344.513-14.336 1.537l-14.336-.77h-.256c-1.28 0-2.432 1.153-2.56 2.56l-3.456 66.561c0 1.536 1.023 2.689 2.559 2.817l25.602 1.28h.255c1.28 0 2.432-1.153 2.432-2.433l2.432-46.464c9.344.512 15.873 6.144 15.873 19.584v4.351c0 22.784 20.479 29.569 22.783 29.569 1.152 0 2.43-.385 3.71-1.409 0 0 12.675-9.087 12.675-9.343.896-.64 1.279-1.408 1.279-2.176 0-1.408-1.28-2.688-2.049-3.328-5.248-4.864-6.912-10.623-6.912-17.791v-4.225c0-24.448-19.711-40.32-45.695-40.32m-64.637 1.222c-1.268 0-2.299.81-2.646 2.108l-13.041 61.04c-.241 1.394.448 2.772 1.808 3.136l.248.066 25.059 5.39c1.27.208 2.68-.607 3.012-1.843l.066-.248 13.074-61.164c.331-1.237-.483-2.647-1.719-2.979l-.246-.066-25.059-5.389a3 3 0 0 0-.556-.05zm-374.78 21.198c2.683-.073 5.223.787 6.833 2.343.746 3.776 1.517 7.147 2.379 10.362a94 94 0 0 0 3.433 10.343c-2.512 1.999-5.098 3.22-7.447 3.85-8.037 2.153-14.45-2.488-16.305-9.412-1.69-6.306.617-15.007 8.407-17.094a11.7 11.7 0 0 1 2.7-.392" style="font-weight:900;font-size:128px;line-height:1;font-family:&quot;FOT-Yuruka Std&quot;;-inkscape-font-specification:&quot;FOT-Yuruka Std Heavy&quot;;text-align:center;letter-spacing:0;word-spacing:0;text-anchor:middle;white-space:pre;fill:#96c;fill-opacity:1;stroke:none;stroke-width:32;stroke-linecap:square;stroke-linejoin:round;stroke-miterlimit:10;stroke-dasharray:none;stroke-opacity:1;paint-order:markers stroke fill"/><path d="m620.15 574.19 65.11-35.096a42.87 42.87 0 0 1 29.698-4.1l96.314 21.536a71.8 71.8 0 0 0 31.234.026l106.44-23.617a67 67 0 0 1 31.12.503l92.88 23.782a61.2 61.2 0 0 0 30.958-.159l84.719-22.62a45.75 45.75 0 0 1 30.12 2.277l78.024 34.09a20.426 20.426 0 0 1 11.954 22.174l-13.987 81.457a19.16 19.16 0 0 1-18.707 15.919L576.41 696.91a10.763 10.763 0 0 1-10.108-14.727l33.872-85.526a43.88 43.88 0 0 1 19.975-22.467" style="opacity:.35;fill:#ffca59;fill-opacity:1;stroke:none;stroke-width:32;stroke-linecap:square;stroke-linejoin:round;stroke-miterlimit:10;stroke-dasharray:none;stroke-opacity:1;paint-order:markers stroke fill"/><path d="m620.15 586.19 65.11-35.096a42.87 42.87 0 0 1 29.698-4.1l96.314 21.536a71.8 71.8 0 0 0 31.234.026l106.44-23.617a67 67 0 0 1 31.12.503l92.88 23.782a61.2 61.2 0 0 0 30.958-.159l84.719-22.62a45.75 45.75 0 0 1 30.12 2.277l78.024 34.09a20.426 20.426 0 0 1 11.954 22.174l-13.987 81.457a19.16 19.16 0 0 1-18.707 15.919L576.41 708.91a10.763 10.763 0 0 1-10.108-14.727l33.872-85.526a43.88 43.88 0 0 1 19.975-22.467" style="opacity:.35;fill:#ffca59;fill-opacity:1;stroke:none;stroke-width:32;stroke-linecap:square;stroke-linejoin:round;stroke-miterlimit:10;stroke-dasharray:none;stroke-opacity:1;paint-order:markers stroke fill"/><path d="m620.15 598.19 65.11-35.096a42.87 42.87 0 0 1 29.698-4.1l96.314 21.536a71.8 71.8 0 0 0 31.234.026l106.44-23.617a67 67 0 0 1 31.12.503l92.88 23.782a61.2 61.2 0 0 0 30.958-.159l84.719-22.62a45.75 45.75 0 0 1 30.12 2.277l78.024 34.09a20.426 20.426 0 0 1 11.954 22.174l-13.987 81.457a19.16 19.16 0 0 1-18.707 15.919L576.41 720.91a10.763 10.763 0 0 1-10.108-14.727l33.872-85.526a43.88 43.88 0 0 1 19.975-22.467" style="opacity:.35;fill:#ffca59;fill-opacity:1;stroke:none;stroke-width:32;stroke-linecap:square;stroke-linejoin:round;stroke-miterlimit:10;stroke-dasharray:none;stroke-opacity:1;paint-order:markers stroke fill"/><path d="m620.15 610.19 65.11-35.096a42.87 42.87 0 0 1 29.698-4.1l96.314 21.536a71.8 71.8 0 0 0 31.234.026l106.44-23.617a67 67 0 0 1 31.12.503l92.88 23.782a61.2 61.2 0 0 0 30.958-.159l84.719-22.62a45.75 45.75 0 0 1 30.12 2.277l78.024 34.09a20.426 20.426 0 0 1 11.954 22.174l-13.987 81.457a19.16 19.16 0 0 1-18.707 15.919L576.41 732.91a10.763 10.763 0 0 1-10.108-14.727l33.872-85.526a43.88 43.88 0 0 1 19.975-22.467" style="opacity:.35;fill:#ffca59;fill-opacity:1;stroke:none;stroke-width:32;stroke-linecap:square;stroke-linejoin:round;stroke-miterlimit:10;stroke-dasharray:none;stroke-opacity:1;paint-order:markers stroke fill"/><path d="M1063.385 483.146a18.9 18.9 0 0 0-17.53 14.036c-.48 1.794-.594 3.586-.544 5.355.09-1.115.245-2.237.545-3.355a18.9 18.9 0 0 1 23.2-13.395c8.217 2.202 13.626 9.575 13.835 17.746.725-8.949-4.948-17.365-13.834-19.746a19 19 0 0 0-5.672-.64m88.361 14.999a2.5 2.5 0 0 0-2.283 1.85l-2.2 8.208a1.5 1.5 0 0 0 .259 1.037l1.94-7.246a2.5 2.5 0 0 1 2.284-1.85 2.5 2.5 0 0 1 .78.083l11.59 3.105a1.5 1.5 0 0 1 .911.697l4.895 8.479.205-.766a1.5 1.5 0 0 0-.15-1.139l-4.95-8.574a1.5 1.5 0 0 0-.912-.697l-11.59-3.105a2.5 2.5 0 0 0-.779-.082M840.5 500a13.5 13.5 0 0 0-13.074 16.443A13.5 13.5 0 0 1 840.5 502a13.515 13.515 0 0 1 13.215 12.44 14 14 0 0 0 .285-.94 13.515 13.515 0 0 0-13.5-13.5m320.408 5.576-1.052 3.932a1.5 1.5 0 0 0 .365.633l1.187-4.43zm-315.224 1.442a1.5 1.5 0 0 0-.776.107l-7 3a1.5 1.5 0 0 0-.787.787l-3 7a1.5 1.5 0 0 0 .27 1.371l2.73-6.37a1.5 1.5 0 0 1 .787-.788l7-3a1.5 1.5 0 0 1 .776-.107 1.5 1.5 0 0 1 .96.617l.235-.547a1.5 1.5 0 0 0-1.195-2.07m317.957 1.95-.5 1.866 2.777.744-1.367-2.367zm-420.8.173c-1.095.018-2.094.722-2.413 1.912l-.067.246-14.136 65.12c-.087.505-.016.988.123 1.438L740.36 513.3l.067-.246c.319-1.19 1.318-1.894 2.414-1.912q.236-.004.474.035l7.518 1.617c6.869-.412 13.315.254 19.25 1.844 5.564 1.49 10.525 3.748 14.85 6.894 8.708-.847 16.613-.185 23.537 1.67 18.51 4.96 30.11 18.74 30.302 36.815.68-19.062-11.112-33.673-30.302-38.815-6.924-1.855-14.83-2.517-23.537-1.67-4.325-3.146-9.286-5.403-14.85-6.894-5.935-1.59-12.381-2.256-19.25-1.844l-7.518-1.617a2.7 2.7 0 0 0-.474-.035m198.823.539c-3.328 0-3.585 2.432-3.713 3.968-.384 5.504-.638 10.752-.894 15.616l-8.194-.512a2.8 2.8 0 0 0-2.814 2.56l-1.537 21.249c0 .185.067.356.105.535l1.432-19.783a2.8 2.8 0 0 1 2.814-2.561l8.194.512c.256-4.864.51-10.112.894-15.616.128-1.536.385-3.968 3.713-3.968h.512l24.191 1.152c1.938.114 2.916 1.184 3.117 2.943.023-.449.063-.913.084-1.359 0-2.176-1.025-3.456-3.2-3.584l-24.192-1.152zm206.56 3.029c-2.1-.078-4.117 1.477-4.74 3.8-.221.827-.182 1.632-.033 2.403.026-.136 0-.266.033-.402.623-2.324 2.64-3.879 4.74-3.801q.45.015.901.135a4.25 4.25 0 0 1 2.246 1.799 1.5 1.5 0 0 0 .383-1.694 4.25 4.25 0 0 0-2.629-2.105q-.45-.12-.9-.135m-305.58.652-1.05.451-.237.55-1.949.835-1.05 2.451 3-1.287zm-140.56.145q-.524.026-1.139.14l-21.886 3.877-.62.166c-1.483.398-2.495 1.067-3.005 2.131-5.385-.81-11.809-.547-17.99 1.11-19.2 5.144-26.18 21.105-26.423 34.925.878-13.319 8.159-28.032 26.422-32.925 6.182-1.657 12.606-1.92 17.99-1.11.51-1.064 1.523-1.733 3.006-2.13l.62-.167 21.886-3.877q.615-.113 1.139-.14c2.451-.128 3.488 1.088 3.836 2.387l.164.617c1.284 11.715 2.437 22.935 4.623 31.095 1.988 7.419 4.771 12.37 9.291 13.413 1.266.259 2.612.626 3.115 1.597l.104-.484q.173-.841.074-1.213c-.331-1.236-1.89-1.614-3.293-1.9-4.52-1.042-7.303-5.994-9.291-13.413-2.186-8.16-3.34-19.38-4.623-31.095l-.164-.617c-.348-1.299-1.385-2.515-3.836-2.387m148.783.492A10.51 10.51 0 0 1 840.5 524a10.5 10.5 0 0 1-10.027-7.676A10.5 10.5 0 0 0 840.5 526a10.51 10.51 0 0 0 10.5-10.5 10.5 10.5 0 0 0-.133-1.502m304.795.818q-.556.02-1.045.186a3.06 3.06 0 0 0-1.865 1.799c-.274.672-.19 1.326.053 1.949a3.06 3.06 0 0 1 1.813-1.748 3.6 3.6 0 0 1 1.044-.186q.928-.033 2.032.342a8.6 8.6 0 0 1 1.388.613 1.5 1.5 0 0 1 .157.278 1.5 1.5 0 0 0-.159-2.278 8.6 8.6 0 0 0-1.388-.613q-1.105-.375-2.032-.342zm8.21 2.2a3.6 3.6 0 0 0-1.046.187 3.06 3.06 0 0 0-1.865 1.797c-.274.673-.19 1.326.053 1.95a3.06 3.06 0 0 1 1.812-1.747 3.6 3.6 0 0 1 1.045-.187q.928-.035 2.034.341a8.6 8.6 0 0 1 1.388.614 1.5 1.5 0 0 1 .176.302 1.5 1.5 0 0 0-.178-2.302 8.6 8.6 0 0 0-1.388-.614q-1.106-.375-2.034-.341zm-141.376.328c-6.4 0-13.057 1.025-19.969 3.2l-14.847.769c-1.408 0-2.56 1.28-2.56 2.816l.083 1.549c.206-1.32 1.215-2.366 2.477-2.366l14.847-.767c6.912-2.176 13.57-3.201 19.97-3.201 4.351 0 8.574.512 12.542 1.408 1.448.386 2.238 1.065 2.541 2.033.061-.32.149-.665.149-.96 0-1.537-.77-2.561-2.69-3.073a57 57 0 0 0-12.543-1.408m-135.92.64c-29.184 0-42.111 19.2-42.111 37.504 0 .436.048.873.062 1.309.322-18.093 13.233-36.813 42.05-36.813 29.569 0 32.777 24.306 33.083 31.082.006-.197.069-.37.069-.57 0-4.224-1.409-32.512-33.153-32.512m317.295 0c-29.184 0-42.111 19.2-42.111 37.504 0 .436.048.873.062 1.309.322-18.093 13.232-36.813 42.049-36.813 29.57 0 32.778 24.306 33.084 31.082.01-.197.068-.37.068-.57 0-4.224-1.409-32.512-33.153-32.512zm-57.256.938c-.065.137-.191.21-.232.363-.28 1.047.147 2.11.932 2.32a1.28 1.28 0 0 0 .996-.177 1.5 1.5 0 0 1 1.646.402 1.5 1.5 0 0 0-1.646-2.402 1.28 1.28 0 0 1-.996.177c-.318-.085-.522-.377-.7-.683m-35.271.422c-4.608 0-9.344.513-14.336 1.537l-14.336-.77h-.256c-1.28 0-2.432 1.153-2.56 2.56l-3.456 66.561c0 .167.057.308.08.465l3.375-65.025c.128-1.408 1.28-2.56 2.56-2.56h.257l14.336.769c4.992-1.024 9.728-1.537 14.336-1.537 25.984 0 45.695 15.872 45.695 40.32v-2c0-24.448-19.711-40.32-45.695-40.32m44.32.47a10 10 0 0 0 .871.569c.61.368 1.3.785 1.807 1.367.277.318.388.683.512 1.043.349-.855.2-1.682-.215-2.44a1.5 1.5 0 0 1-1.045.022c-.715-.403-1.596-.624-1.93-.56m-108.957.752c-1.268 0-2.299.81-2.646 2.108l-13.041 61.04c-.086.497-.016.974.123 1.42l12.918-60.46c.347-1.298 1.378-2.108 2.646-2.108q.272 0 .557.051l25.058 5.389.246.066c.762.204 1.322.833 1.594 1.563l.125-.584c.331-1.237-.482-2.647-1.719-2.979l-.246-.066-25.058-5.389a3 3 0 0 0-.557-.05m105.828.653a1.5 1.5 0 0 0-.185 2.314 1.5 1.5 0 0 1 1.69-.295c.761.444 1.76.682 1.976.54a.3.3 0 0 0 .049-.08c-.195-.212-.745-.542-1.079-.747-.6-.363-1.222-.736-1.699-1.264-.128-.14-.143-.312-.238-.462a1.5 1.5 0 0 0-.514-.006m11.34.797a10 10 0 0 0 .871.568c.61.368 1.3.785 1.807 1.367v-.004c.278.319.388.685.511 1.045.347-.848.2-1.667-.205-2.42a1.5 1.5 0 0 1-1.056.002c-.716-.402-1.594-.622-1.928-.558m-3.154 1.373a1.5 1.5 0 0 0-.186 2.314 1.5 1.5 0 0 1 1.715-.264c.762.445 1.76.68 1.977.538a.3.3 0 0 0 .049-.079c-.195-.21-.747-.541-1.08-.746-.6-.362-1.222-.738-1.7-1.265-.133-.147-.15-.324-.248-.48a1.5 1.5 0 0 0-.527-.018m-192.051 7.42c-.046.66-.078 1.338-.125 1.992l8.832.512c1.226 0 2.21.988 2.455 2.253l.104-1.437c0-1.536-1.151-2.816-2.56-2.816zm48.555 14.882c-.037.01-.068.013-.106.022l2.36 43.932c.019-.125.074-.236.074-.366v-.256zm-126.858 1.47c-.599.865-2.352 1.309-7.248 2.439-1.664.384-2.687 1.023-2.687 2.431 0 .049.226.797.267.977.397-.718 1.236-1.135 2.42-1.408 6.656-1.536 7.553-1.792 7.553-3.584 0-.189-.172-.54-.305-.856m317.297 0c-.599.865-2.352 1.309-7.248 2.439-1.664.384-2.687 1.023-2.687 2.431 0 .049.226.797.267.977.397-.718 1.235-1.135 2.42-1.408 6.656-1.536 7.553-1.792 7.553-3.584 0-.189-.172-.54-.305-.856M771.83 548.75c-.043 2.676-.454 5.801-1.273 9.6l-5.754 26.42c-.087.503-.016.986.123 1.437l5.63-25.857c1.027-4.762 1.494-8.564 1.274-11.6m99.856 6.27c-.022.357-.086.69-.086 1.06 0 9.088 6.656 19.328 22.656 19.328.896 0 1.92 0 2.816-.129h.256c1.447 0 3.085.786 3.686 2.221.034-.172.283-.798.283-.893 0-2.176-2.177-3.328-3.969-3.328h-.256c-.896.128-1.92.13-2.816.13-15.454 0-22.128-9.549-22.57-18.39m317.296 0c-.022.357-.086.69-.086 1.06 0 9.088 6.657 19.328 22.657 19.328.896 0 1.918 0 2.814-.129h.256c1.447 0 3.085.786 3.685 2.221.035-.172.284-.798.284-.893 0-2.176-2.177-3.328-3.97-3.328h-.255c-.896.128-1.918.13-2.814.13-15.454 0-22.129-9.549-22.57-18.39zm-528.62.943c-.134 1.82.016 3.635.458 5.287 1.856 6.924 8.268 11.565 16.305 9.412 2.35-.63 4.935-1.851 7.447-3.85-.203-.514-.392-1.088-.592-1.619-2.324 1.732-4.69 2.889-6.855 3.47-8.037 2.152-14.45-2.49-16.305-9.413-.279-1.041-.404-2.156-.459-3.287m148.917 1.683c-.061 2.839-.518 6.214-1.441 10.428-.7 3.44-.915 6.547-.818 9.399.05-2.303.277-4.743.818-7.399 1.145-5.231 1.637-9.26 1.441-12.428m157.858 1.778c0 11.648 1.536 20.48 7.168 22.912 1.046.476 2.16.883 2.664 1.639l.023-.055c.128-.384.256-.768.256-1.024 0-1.408-1.535-1.92-2.943-2.56-5.286-2.283-6.902-10.314-7.088-20.908zm189.902 4.465v2c0 7.168 1.664 12.927 6.912 17.79.564.471 1.398 1.29 1.805 2.249.134-.302.244-.61.244-.92 0-1.408-1.28-2.688-2.049-3.328-5.248-4.864-6.912-10.623-6.912-17.791m-320.187 15.318c.053 4.082.961 7.822 3.646 11.412.35.496.88 1.3 1.186 2.154.05-.115.147-.23.177-.343.365-1.36-.787-2.994-1.363-3.81-2.25-3.01-3.323-6.092-3.646-9.413m75.08 4.037a1.5 1.5 0 0 0-1.393 1.881l.223.834a1.5 1.5 0 0 1 1.17-.715 1.5 1.5 0 0 1 1.505 1.106l5.047 18.834 18.834-5.047a1.5 1.5 0 0 1 1.426.523 1.5 1.5 0 0 0 .412-1.463 1.5 1.5 0 0 0-1.838-1.06l-18.834 5.047-5.047-18.834a1.5 1.5 0 0 0-1.505-1.106m7.806 3.387a13.5 13.5 0 0 0-1.883.205 1.5 1.5 0 0 0-.634 2.535 1.5 1.5 0 0 1 .634-.535 13.5 13.5 0 0 1 1.883-.205 13.5 13.5 0 0 1 12.914 8.43 1.5 1.5 0 0 0 .305-1.51 13.5 13.5 0 0 0-13.219-8.92m-193.855.281a2.5 2.5 0 0 0-2.283 1.85l-4.143 15.453a2.5 2.5 0 0 0 .176 1.34l3.967-14.793a2.5 2.5 0 0 1 2.283-1.85 2.5 2.5 0 0 1 .777.08l25.115 6.73a2.5 2.5 0 0 1 1.643 1.532l.125-.469a2.5 2.5 0 0 0-1.768-3.062l-25.115-6.73a2.5 2.5 0 0 0-.777-.08m185.062 1.729-2.88.771a1.5 1.5 0 0 0-.18 2.324 1.5 1.5 0 0 1 .18-.324l3.38-.906zm-181.851 5.752a1.5 1.5 0 0 0-1.606 1.103l-1.295 4.83a1.5 1.5 0 0 0 .268 1l1.027-3.83a1.5 1.5 0 0 1 1.606-1.103 1.5 1.5 0 0 1 1.142.742l1.725 2.984 2.988-1.724a1.5 1.5 0 0 1 1.98.5l.217-.81a1.5 1.5 0 0 0-2.197-1.69l-2.988 1.724-1.725-2.984a1.5 1.5 0 0 0-1.142-.742m13.904 3.746a1.5 1.5 0 0 0-1.504 1.111l-.486 1.814-.047-.064a1.5 1.5 0 0 0-2.098-.32 1.5 1.5 0 0 0-.32 2.093l.254.344a1.5 1.5 0 0 1 .066-.437 1.5 1.5 0 0 1 2.098.32l.047.064.486-1.814a1.5 1.5 0 0 1 1.504-1.111 1.5 1.5 0 0 1 1.164.74l.229-.854a1.5 1.5 0 0 0-1.393-1.886m7.018.216-3.383 12.625-23.649-6.335-.5 1.865 24.149 6.47 3.883-14.49zm-5.631 3.495a2 2 0 0 1 .006.175l-.485 1.813.073-.033a1.5 1.5 0 0 1 1.54.289 1.5 1.5 0 0 0-1.134-2.244" style="font-weight:900;font-size:128px;line-height:1;font-family:&quot;FOT-Yuruka Std&quot;;-inkscape-font-specification:&quot;FOT-Yuruka Std Heavy&quot;;text-align:center;letter-spacing:0;word-spacing:0;text-anchor:middle;white-space:pre;opacity:.25;fill:#fff;fill-opacity:1;stroke:none;stroke-width:32;stroke-linecap:square;stroke-linejoin:round;stroke-miterlimit:10;stroke-dasharray:none;stroke-opacity:1;paint-order:markers stroke fill"/><path d="m1152.23 499.254-2.07 7.726a1.5 1.5 0 0 1-2.639.26l-.257.963a1.5 1.5 0 1 0 2.896.777l2.07-7.726 8.678 2.322.5-1.865zm-106.92 1.283c-.715 8.874 4.969 17.31 13.975 19.723 10.015 2.683 20.362-3.29 23.045-13.305.488-1.82.606-3.633.56-5.422-.091 1.136-.254 2.28-.56 3.422-2.683 10.015-13.03 15.988-23.045 13.305-8.322-2.23-13.75-9.614-13.975-17.723m-203.167.592a10.5 10.5 0 0 0-11.67 13.195 10.5 10.5 0 0 1 11.67-11.195 10.5 10.5 0 0 1 8.724 8.869 11 11 0 0 0 .133-.498 10.5 10.5 0 0 0-8.857-10.371m321.742 2.93-.744 2.775.5.135.244-.91.666 1.152 1.367.367zm-317.24 3.576-2.766 6.453a1.5 1.5 0 0 1-.787.787l-7 3a1.5 1.5 0 0 1-1.701-.592l-.27.63a1.5 1.5 0 0 0 1.97 1.962l7-3a1.5 1.5 0 0 0 .788-.787l3-7a1.5 1.5 0 0 0-.234-1.453m313.576.506-.366 1.367a1.5 1.5 0 0 0 1.061 1.836l5.795 1.552-.129.485a1.5 1.5 0 1 0 2.897.775l.648-2.414a1.5 1.5 0 0 0-.15-1.138l-.055-.096-.444 1.648a1.5 1.5 0 1 1-2.896-.775l.129-.485-5.795-1.552a1.5 1.5 0 0 1-.696-1.203zm-317.576 1.22-3 1.287-1.288 3 1.051-.45.237-.55 1.949-.835zm11.07 3.078a13.5 13.5 0 0 1-26.29 2.004A13.5 13.5 0 0 0 854 513.5a14 14 0 0 0-.285-1.06m294.635 1.303c-.785-.21-1.686.494-1.967 1.543a2.1 2.1 0 0 0 .232 1.637c.381-.8 1.064-1.36 1.735-1.18a1.28 1.28 0 0 1 .773.65 1.5 1.5 0 1 0 2.63-1.443 4 4 0 0 0-.472-.379 1.5 1.5 0 0 1-2.158-.177 1.28 1.28 0 0 0-.773-.65m-178.866.033a749 749 0 0 1-.94 15.026l.126.008c.335-4.77.673-9.67.898-14.393 0-.238-.059-.424-.084-.64zm186.18 2.04a10 10 0 0 0 .871.568c.61.368 1.3.785 1.807 1.367.16.184.187.404.297.604a1.5 1.5 0 0 0 .601-2.303 1.5 1.5 0 0 1-1.646.324c-.716-.403-1.596-.624-1.93-.56m-2.86.935-.052.05c-.346.85-.176 1.678.296 2.425a1.5 1.5 0 0 1 .99.013c.763.444 1.762.682 1.977.54a.3.3 0 0 0 .05-.08c-.195-.212-.746-.542-1.079-.747-.6-.363-1.222-.736-1.7-1.263-.258-.287-.356-.616-.482-.938m-9.353.162c-.476 2.52.812 4.983 3.086 5.592a4.25 4.25 0 0 0 3.33-.51 1.5 1.5 0 0 0 .043-2.176 2 2 0 0 1-.043.176 4.25 4.25 0 0 1-3.33.51c-1.651-.443-2.755-1.884-3.086-3.592m20.424 1.104a10 10 0 0 0 .871.568c.61.368 1.3.785 1.807 1.367v-.004c.166.191.195.418.306.625a1.5 1.5 0 0 0 .614-2.297 1.5 1.5 0 0 1-1.67.3c-.716-.403-1.594-.623-1.928-.56m-2.861.933-.053.051c-.343.842-.176 1.664.287 2.406a1.5 1.5 0 0 1 1.002.033c.762.445 1.76.68 1.976.538a.3.3 0 0 0 .05-.079c-.195-.21-.747-.541-1.08-.746-.601-.362-1.223-.738-1.7-1.265-.259-.286-.357-.616-.482-.938m-123.434 1.836c-.044.235-.053.433-.107.703l-3.713 18.047c-.384 1.792-1.664 2.69-3.2 2.69-.384 0-.896-.128-1.408-.256-2.048-.64-4.224-1.026-6.4-1.026-1.792 0-3.585.258-5.633.77l.106 1.978c2.001-.493 3.767-.748 5.527-.748 2.176 0 4.352.386 6.4 1.026.512.128 1.024.256 1.408.256 1.536 0 2.816-.898 3.2-2.69l3.713-18.047c.128-.64.255-1.152.255-1.664q0-.565-.148-1.039m121.273.008v.014a3.1 3.1 0 0 1-1.904 1.818c-.853.287-1.769.194-2.549-.015a8 8 0 0 1-1.886-.79 1.5 1.5 0 0 1-.163-.287 1.5 1.5 0 0 0 .163 2.288 8 8 0 0 0 1.886.789c.78.209 1.696.302 2.55.015a3.1 3.1 0 0 0 1.903-1.818c.288-.696.224-1.37 0-2.014m8.211 2.2v.013a3.1 3.1 0 0 1-1.904 1.82c-.853.287-1.769.192-2.549-.017a8 8 0 0 1-1.886-.79 1.5 1.5 0 0 1-.188-.316 1.5 1.5 0 0 0 .188 2.317 8 8 0 0 0 1.886.789c.78.209 1.696.304 2.55.017a3.1 3.1 0 0 0 1.903-1.82c.288-.696.224-1.37 0-2.014m-181.86.685c-.025.153-.085.292-.085.451l3.584 66.559c0 1.536 1.28 2.56 2.817 2.56l25.472-1.408a2.57 2.57 0 0 0 2.56-2.56v-.256l-.073-1.38c-.186 1.23-1.208 2.196-2.487 2.196l-25.472 1.408c-1.536 0-2.817-1.024-2.817-2.56zm88.958 3.957-12.95 60.58-.065.248c-.331 1.236-1.742 2.051-3.012 1.844l-25.058-5.39-.249-.067c-.875-.235-1.435-.907-1.685-1.715l-.123.58c-.24 1.393.448 2.77 1.808 3.135l.249.066 25.058 5.39c1.27.208 2.68-.607 3.012-1.843l.066-.248 13.074-61.164c.127-.475.045-.96-.125-1.416m-94.33 5.932-1.432 19.81c-.128 1.28-1.152 2.432-2.56 2.432h-.256l-8.447-.385c0 .716.068 1.31.08 2.004l8.367.38h.256c1.408 0 2.432-1.15 2.56-2.43l1.536-21.249c0-.198-.067-.375-.104-.562m-215.377 1.537-9.799 45.476c-.397 1.484-1.685 2.33-3.078 2.09l-23.418-5.082-.248-.066c-.79-.212-1.32-.868-1.564-1.664l-.123.562c-.241 1.393.45 2.77 1.687 3.102l.248.066 23.418 5.082c1.393.24 2.68-.606 3.078-2.09l9.8-45.476c4.754 1.687 7.01 4.614 7.374 9.646.1-6.238-2.04-9.753-7.375-11.646m118.408 3.664c-6.144 0-11.263 5.376-11.263 13.312 0 .31.07.627.086.94.445-7.334 5.32-12.252 11.177-12.252 4.496 0 6.827 2.78 7.504 4.392.216-.31.305-.67.305-1.144 0-1.152-2.433-5.248-7.809-5.248m317.297 0c-6.144 0-11.264 5.376-11.264 13.312 0 .31.07.627.086.94.446-7.334 5.32-12.252 11.178-12.252 4.496 0 6.827 2.78 7.504 4.392.215-.31.305-.67.305-1.144 0-1.152-2.433-5.248-7.809-5.248m-528.232.996a11.7 11.7 0 0 0-2.701.392c-6.503 1.743-9.14 8.087-8.866 13.807.374-5.123 3.118-10.266 8.866-11.807a11.7 11.7 0 0 1 2.7-.392c2.683-.073 5.223.787 6.833 2.344.746 3.775 1.517 7.146 2.379 10.36.857 3.2 1.83 6.044 2.841 8.726.198-.147.396-.225.592-.381a94 94 0 0 1-3.433-10.344c-.862-3.215-1.633-6.586-2.38-10.361-1.609-1.557-4.149-2.417-6.831-2.344m437.752 2.668-2.432 46.465c0 1.28-1.152 2.431-2.432 2.431h-.256l-25.601-1.279c-1.37-.114-2.286-1.063-2.479-2.352l-.08 1.536c0 1.536 1.023 2.688 2.56 2.816l25.6 1.28h.256c1.28 0 2.432-1.152 2.432-2.432l2.432-46.465c9.344.512 15.873 6.144 15.873 19.584v-2c0-13.44-6.53-19.072-15.873-19.584m-306.936 1.605-9.601 44.735c-.398 1.483-1.685 2.332-3.079 2.091l-23.328-4.925-.246-.067c-.79-.211-1.32-.868-1.564-1.664l-.123.563c-.241 1.393.45 2.77 1.687 3.101l.246.067 23.328 4.925c1.394.241 2.681-.608 3.079-2.091l9.601-44.735c4.158 1.764 6.225 4.59 6.535 9.61.136-6.266-1.867-9.63-6.535-11.61m116.916 5.03c-.162 5.62-2.62 10.269-9.916 12.742-6.016 2.048-15.488 3.455-22.144 3.71-2.048 0-2.688-.895-3.2-2.43-1.39-3.823-3.31-10.372-3.7-12.081-.162.29-.268.618-.268 1.023 0 .512 2.432 8.833 3.968 13.057.512 1.536 1.152 2.432 3.2 2.432 6.656-.256 16.128-1.663 22.144-3.711 7.552-2.56 9.985-7.425 9.985-13.313 0-.289-.046-.931-.069-1.43m317.295 0c-.162 5.62-2.62 10.269-9.916 12.742-6.016 2.048-15.487 3.455-22.143 3.71-2.048 0-2.689-.895-3.2-2.43-1.39-3.823-3.309-10.372-3.7-12.081-.16.29-.268.618-.268 1.023 0 .512 2.431 8.833 3.967 13.057.512 1.536 1.153 2.432 3.201 2.432 6.656-.256 16.127-1.663 22.143-3.711 7.552-2.56 9.984-7.425 9.984-13.313 0-.289-.046-.931-.068-1.43zm-312.338 2.029-.105 1.465c0 1.408 1.152 2.688 2.56 2.816l9.6.512c.64 32.384 7.808 43.648 28.416 47.744.384.128.768.127 1.152.127 1.92 0 3.072-1.279 4.096-3.711l6.656-16.129c.128-.384.256-.767.256-1.023 0-.362-.105-.662-.28-.922l-6.632 16.074c-1.024 2.432-2.176 3.711-4.096 3.711-.384 0-.768.001-1.152-.127-20.608-4.096-27.776-15.36-28.416-47.744l-9.6-.512c-1.222-.111-2.205-1.103-2.455-2.281m-293.596 2.76c-.298 4.533.13 8.908 1.14 12.675 5.333 19.906 27.377 30.963 48.025 25.43 6.305-1.69 12.584-4.962 18.119-10.023 7.739 4.154 16.923 3.813 18.16 3.482 1.607-.43 2.546-1.875 3.096-4.275l3.656-17.014q.173-.841.074-1.213c-.032-.12-.124-.198-.178-.303l-3.552 16.53c-.55 2.4-1.489 3.844-3.096 4.275-1.237.331-10.421.672-18.16-3.482-5.535 5.06-11.814 8.334-18.12 10.023-20.647 5.533-42.691-5.524-48.025-25.43-.857-3.2-1.205-6.874-1.139-10.675m213.506.941c-.004.23-.062.461-.062.691 0 19.456 14.59 39.295 43.646 39.295h1.537c3.712 0 5.377-1.791 6.4-3.84 1.92-4.351 5.249-13.055 5.249-14.335 0-.42-.14-.766-.283-1.108-.433 2.145-3.188 9.414-4.965 13.444-1.024 2.048-2.689 3.84-6.4 3.84h-1.538c-28.404 0-42.944-18.96-43.584-37.987m317.295 0c0 .23-.062.461-.062.691 0 19.456 14.593 39.295 43.649 39.295h1.535c3.712 0 5.376-1.791 6.4-3.84 1.92-4.351 5.248-13.055 5.248-14.335 0-.42-.14-.766-.283-1.108-.433 2.145-3.187 9.414-4.965 13.444-1.024 2.048-2.688 3.84-6.4 3.84h-1.535c-28.405 0-42.947-18.96-43.586-37.987zm-323.049 3.219a48 48 0 0 1-.939 7.88c-.845 4.16-1.318 7.865-.982 11.311-.038-2.889.294-5.925.982-9.31a46.7 46.7 0 0 0 .94-9.881m286.78 8.351v2c0 22.784 20.479 29.569 22.783 29.569 1.152 0 2.43-.384 3.71-1.408 0 0 12.675-9.088 12.675-9.344.896-.64 1.279-1.408 1.279-2.176 0-.373-.098-.734-.244-1.08a3 3 0 0 1-1.035 1.256c0 .256-12.674 9.344-12.674 9.344-1.28 1.024-2.56 1.408-3.711 1.408-2.304 0-22.783-6.785-22.783-29.569m-318.533 9.106c-.426 19.16 14.345 26.44 15.89 26.853 1.237.332 2.483.136 4.174-.736 0 0 13.192-7.2 13.258-7.447.907-.42 1.354-1.095 1.52-1.713.142-.534.02-1.104-.178-1.656a2.58 2.58 0 0 1-1.342 1.369c-.067.247-13.258 7.447-13.258 7.447-1.691.872-2.937 1.068-4.174.736-1.49-.399-15.293-7.182-15.89-24.853m103.742 8.486a1.5 1.5 0 0 0-.223 1.166l.406 1.516.5-.135zm6.459 3.412a1.5 1.5 0 0 0 1.168 2.418 10.5 10.5 0 0 1 11.742 6.78 1.5 1.5 0 0 0 1.799.941l.12-.033a1.5 1.5 0 0 0 .907-1.926 14 14 0 0 0-.305-.49 1.5 1.5 0 0 1-.601.416l-.121.033a1.5 1.5 0 0 1-1.8-.941 10.5 10.5 0 0 0-11.741-6.78 1.5 1.5 0 0 1-1.168-.418m-190.854.649-3.883 14.49.5.135 3.383-12.625 23.649 6.336.5-1.866zm185.854 1.384-3.381.905a1.5 1.5 0 0 1-.955-.572 1.5 1.5 0 0 0 .955 2.572l3.38-.905 3.755 14.006a1.5 1.5 0 0 0 1.836 1.06l20.285-5.435a1.5 1.5 0 0 0 1.06-1.838 1.5 1.5 0 0 0-.412-.537 1.5 1.5 0 0 1-.648.375l-20.285 5.436a1.5 1.5 0 0 1-1.836-1.06zm-158.803 5.85-4.018 14.984a2.5 2.5 0 0 1-3.06 1.77l-25.115-6.73a2.5 2.5 0 0 1-1.592-1.723l-.176.66a2.5 2.5 0 0 0 1.768 3.063l25.115 6.73a2.5 2.5 0 0 0 3.06-1.77l4.143-15.453a2.5 2.5 0 0 0-.125-1.53m-16.488 1.64-1.076 4.02a1.5 1.5 0 0 1-2.899-.775l.356-1.328-1.15.664a1.5 1.5 0 0 1-2.052-.549l-.662-1.15-.355 1.328a1.5 1.5 0 0 1-2.533-.143l-.366 1.365a1.5 1.5 0 0 0 2.899.778l.355-1.328.662 1.15a1.5 1.5 0 0 0 2.051.549l1.15-.664-.355 1.328a1.5 1.5 0 0 0 2.899.775l1.292-4.828a1.5 1.5 0 0 0-.216-1.191m7.232 1.985-.256.96.073-.034a1.5 1.5 0 0 1 .406.045 1.5 1.5 0 0 0-.223-.97m-5.365 2.238a1.5 1.5 0 0 0-.254 1.657l1.898 2.58a1.5 1.5 0 0 0 1.81.484l2.933-1.285a1.5 1.5 0 0 0 .336-2.46 1.5 1.5 0 0 1-.336.46l-2.932 1.285a1.5 1.5 0 0 1-1.81-.484z" style="font-weight:900;font-size:128px;line-height:1;font-family:&quot;FOT-Yuruka Std&quot;;-inkscape-font-specification:&quot;FOT-Yuruka Std Heavy&quot;;text-align:center;letter-spacing:0;word-spacing:0;text-anchor:middle;white-space:pre;display:inline;opacity:.25;fill:#000;fill-opacity:1;stroke:none;stroke-width:32;stroke-linecap:square;stroke-linejoin:round;stroke-miterlimit:10;stroke-dasharray:none;stroke-opacity:1;paint-order:markers stroke fill"/></g><path d="M840.5 500a13.5 13.5 0 1 0 13.5 13.5 13.515 13.515 0 0 0-13.5-13.5m0 24a10.5 10.5 0 1 1 10.5-10.5 10.51 10.51 0 0 1-10.5 10.5m4.409-16.875-7 3a1.5 1.5 0 0 0-.788.788l-3 7a1.5 1.5 0 0 0 1.97 1.962l7-3a1.5 1.5 0 0 0 .788-.787l3-7a1.5 1.5 0 0 0-1.97-1.963m-3.551 7.236-3 1.287 1.286-3 3-1.287z" style="fill:#96c;fill-opacity:1;stroke-width:1" transform="translate(-573.928 -428.6)"/><path d="M939.156 599.198a1.5 1.5 0 0 1-1.06 1.837l-20.285 5.435a1.5 1.5 0 0 1-1.837-1.06l-3.753-14.006-3.38.906a1.5 1.5 0 0 1-.777-2.898l3.38-.906-.905-3.38a1.5 1.5 0 0 1 2.898-.777l5.047 18.835 18.835-5.047a1.5 1.5 0 0 1 1.837 1.06m-20.768-9.41a10.5 10.5 0 0 1 11.743 6.78 1.5 1.5 0 0 0 1.798.942l.121-.033a1.5 1.5 0 0 0 .908-1.925 13.5 13.5 0 0 0-15.102-8.716 1.5 1.5 0 1 0 .532 2.953" style="fill:#edb96e;fill-opacity:1;stroke-width:1" transform="translate(-573.928 -428.6)"/><path d="M1146.383 517.285c-.28 1.047.146 2.11.93 2.32a1.28 1.28 0 0 0 .997-.176 1.5 1.5 0 1 1 1.557 2.565 4.25 4.25 0 0 1-3.33.51c-2.396-.643-3.764-3.339-3.052-5.995s3.244-4.307 5.64-3.665a4.25 4.25 0 0 1 2.629 2.106 1.5 1.5 0 1 1-2.63 1.443 1.28 1.28 0 0 0-.775-.651c-.785-.21-1.685.494-1.966 1.543m11.958 2.466c-.507-.582-1.197-1-1.808-1.367a10 10 0 0 1-.871-.569c.334-.063 1.214.157 1.93.56a1.5 1.5 0 0 0 1.49-2.604 8.6 8.6 0 0 0-1.388-.613c-1.178-.401-2.209-.452-3.078-.156a3.06 3.06 0 0 0-1.865 1.799c-.415 1.02-.226 2.045.535 2.886.478.527 1.1.902 1.7 1.265.333.204.884.535 1.078.746a.3.3 0 0 1-.048.079c-.215.143-1.214-.094-1.977-.538a1.5 1.5 0 1 0-1.527 2.581 8 8 0 0 0 1.886.79c.78.208 1.696.302 2.549.016a3.1 3.1 0 0 0 1.904-1.82c.45-1.085.265-2.17-.51-3.058zm8.21 2.2c-.506-.583-1.197-1-1.808-1.367a10 10 0 0 1-.87-.569c.333-.063 1.213.157 1.929.56a1.5 1.5 0 0 0 1.49-2.604 8.6 8.6 0 0 0-1.388-.613c-1.178-.401-2.208-.452-3.077-.156a3.06 3.06 0 0 0-1.865 1.799c-.416 1.02-.226 2.045.535 2.886.477.527 1.099.902 1.699 1.265.333.204.884.535 1.079.746a.3.3 0 0 1-.048.079c-.216.143-1.215-.094-1.977-.538a1.5 1.5 0 1 0-1.528 2.581 8 8 0 0 0 1.886.789c.78.209 1.696.303 2.55.016a3.1 3.1 0 0 0 1.904-1.819c.449-1.085.264-2.17-.51-3.058zm-19.288-13.747 2.2-8.21a2.5 2.5 0 0 1 3.062-1.768l11.591 3.106a1.5 1.5 0 0 1 .912.698l4.95 8.573a1.5 1.5 0 0 1 .148 1.139l-.647 2.415a1.5 1.5 0 1 1-2.897-.777l.129-.483-5.796-1.553a1.5 1.5 0 0 1-1.06-1.837l1.553-5.795-9.177-2.459-2.07 7.727a1.5 1.5 0 1 1-2.898-.776m15.878.63 2.777.745-2.033-3.521z" style="fill:#96c;fill-opacity:1;stroke-width:1" transform="translate(-573.928 -428.6)"/><path d="m751.775 593.722-25.114-6.729a2.5 2.5 0 0 0-3.062 1.768l-4.141 15.455a2.5 2.5 0 0 0 1.767 3.062l25.114 6.729a2.5 2.5 0 0 0 3.062-1.768l4.141-15.455a2.5 2.5 0 0 0-1.767-3.062m-5.142 17.258-24.148-6.47 3.882-14.49 24.148 6.47zm-20.44-10.653 1.295-4.83a1.5 1.5 0 0 1 2.748-.362l1.726 2.984 2.987-1.725a1.5 1.5 0 0 1 2.198 1.691l-1.294 4.83a1.5 1.5 0 0 1-2.898-.777l.356-1.328-1.15.665a1.5 1.5 0 0 1-2.053-.55l-.66-1.15-.357 1.328a1.5 1.5 0 0 1-2.897-.776m12.67.353a1.5 1.5 0 0 1 2.097.32l.047.065.487-1.815a1.5 1.5 0 0 1 2.897.776l-.485 1.811.073-.032a1.5 1.5 0 0 1 1.205 2.748l-2.932 1.285a1.5 1.5 0 0 1-1.811-.485l-1.897-2.579a1.5 1.5 0 0 1 .319-2.094" style="fill:#edb96e;fill-opacity:1;stroke-width:1" transform="translate(-573.928 -428.6)"/></svg>