<svg version="1.1" xmlns="http://www.w3.org/2000/svg" xmlns:xlink="http://www.w3.org/1999/xlink" width="800" height="800"><defs/><g transform="scale(2,2)"><g id="background-2833f5f5"><rect fill="white" stroke="none" x="0" y="0" width="400" height="400" class="dcg-svg-background"/></g><g id="background-images-2833f5f5"/><g id="graphpaper-2833f5f5"><g id="axis-2833f5f5"><g id="yaxis-2833f5f5"><title>Y axis</title><path fill="none" stroke="rgb(0,0,0)" class="dcg-svg-axis-line" paint-order="fill stroke markers" d=" M 261 0 L 261 400" stroke-opacity="0.9" stroke-miterlimit="10" stroke-width="1.5" stroke-dasharray=""/></g><g id="xaxis-2833f5f5"><title>X axis</title><path fill="none" stroke="rgb(0,0,0)" class="dcg-svg-axis-line" paint-order="fill stroke markers" d=" M 0 242 L 400 242" stroke-opacity="0.9" stroke-miterlimit="10" stroke-width="1.5" stroke-dasharray=""/></g><g><g class="dcg-svg-axis-value"><text fill="none" stroke="#ffffff" font-family="Arial" font-size="14px" font-style="normal" font-weight="normal" text-decoration="normal" x="252.29019470096313" y="257.8606240188733" text-anchor="middle" stroke-miterlimit="2" stroke-width="3" stroke-dasharray="">0</text><text fill="#000000" stroke="none" font-family="Arial" font-size="14px" font-style="normal" font-weight="normal" text-decoration="normal" x="252.29019470096313" y="257.8606240188733" text-anchor="middle">0</text></g><g><path fill="none" stroke="rgb(0,0,0)" class="dcg-svg-tickmark" paint-order="fill stroke markers" d=" M 81 239 L 81 245 M 171 239 L 171 245 M 352 239 L 352 245 M 258 332 L 264 332 M 258 152 L 264 152 M 258 61 L 264 61" stroke-opacity="0.9" stroke-miterlimit="2" stroke-width="1.5" stroke-dasharray=""/></g><g class="dcg-svg-axis-value"><text fill="none" stroke="#ffffff" font-family="Arial" font-size="14px" font-style="normal" font-weight="normal" text-decoration="normal" x="78.19349074795906" y="257.8606240188733" text-anchor="middle" stroke-miterlimit="2" stroke-width="3" stroke-dasharray="">-4</text><text fill="#000000" stroke="none" font-family="Arial" font-size="14px" font-style="normal" font-weight="normal" text-decoration="normal" x="78.19349074795906" y="257.8606240188733" text-anchor="middle">-4</text></g><g class="dcg-svg-axis-value"><text fill="none" stroke="#ffffff" font-family="Arial" font-size="14px" font-style="normal" font-weight="normal" text-decoration="normal" x="168.5228485838361" y="257.8606240188733" text-anchor="middle" stroke-miterlimit="2" stroke-width="3" stroke-dasharray="">-2</text><text fill="#000000" stroke="none" font-family="Arial" font-size="14px" font-style="normal" font-weight="normal" text-decoration="normal" x="168.5228485838361" y="257.8606240188733" text-anchor="middle">-2</text></g><g class="dcg-svg-axis-value"><text fill="none" stroke="#ffffff" font-family="Arial" font-size="14px" font-style="normal" font-weight="normal" text-decoration="normal" x="351.51261894309016" y="257.8606240188733" text-anchor="middle" stroke-miterlimit="2" stroke-width="3" stroke-dasharray="">2</text><text fill="#000000" stroke="none" font-family="Arial" font-size="14px" font-style="normal" font-weight="normal" text-decoration="normal" x="351.51261894309016" y="257.8606240188733" text-anchor="middle">2</text></g><g class="dcg-svg-axis-value"><text fill="none" stroke="#ffffff" font-family="Arial" font-size="14px" font-style="normal" font-weight="normal" text-decoration="normal" x="249.95914001346313" y="336.18998185475033" text-anchor="middle" stroke-miterlimit="2" stroke-width="3" stroke-dasharray="">-2</text><text fill="#000000" stroke="none" font-family="Arial" font-size="14px" font-style="normal" font-weight="normal" text-decoration="normal" x="249.95914001346313" y="336.18998185475033" text-anchor="middle">-2</text></g><g class="dcg-svg-axis-value"><text fill="none" stroke="#ffffff" font-family="Arial" font-size="14px" font-style="normal" font-weight="normal" text-decoration="normal" x="252.29019470096313" y="155.53126618299626" text-anchor="middle" stroke-miterlimit="2" stroke-width="3" stroke-dasharray="">2</text><text fill="#000000" stroke="none" font-family="Arial" font-size="14px" font-style="normal" font-weight="normal" text-decoration="normal" x="252.29019470096313" y="155.53126618299626" text-anchor="middle">2</text></g><g class="dcg-svg-axis-value"><text fill="none" stroke="#ffffff" font-family="Arial" font-size="14px" font-style="normal" font-weight="normal" text-decoration="normal" x="252.29019470096313" y="65.20190834711924" text-anchor="middle" stroke-miterlimit="2" stroke-width="3" stroke-dasharray="">4</text><text fill="#000000" stroke="none" font-family="Arial" font-size="14px" font-style="normal" font-weight="normal" text-decoration="normal" x="252.29019470096313" y="65.20190834711924" text-anchor="middle">4</text></g></g></g></g><g id="expressions-2833f5f5"><g id="sketch-2833f5f5"><title>Expression 1</title><path fill="#f5f5f5" stroke="none" paint-order="stroke fill markers" d="" fill-opacity="0.4"/><g><path fill="none" stroke="#f5f5f5" class="dcg-svg-curve" paint-order="fill stroke markers" d=" M -0.5 249.36265063816398 L -0.5 249.36265063816398 L 31.140624999999996 250.4392006320639 L 57.31249999999999 251.58281818569904 L 79.18749999999997 252.79171968323706 L 97.7421875 254.0715560266355 L 113.5625 255.41775227411634 L 127.23437499999999 256.8382384684511 L 139.05078125 258.3232121393745 L 149.40234374999997 259.88324413060855 L 158.484375 261.5122175081854 L 166.58984375 263.2315924212693 L 173.81640625 265.0350929664767 L 180.26171874999997 266.91707441327094 L 186.12109375 268.9103081375223 L 191.39453125 270.99245104361603 L 196.1796875 273.1764257353781 L 200.671875 275.5436439582594 L 204.77343749999997 278.0372360271521 L 208.58203124999997 280.70425685653987 L 212.19531249999997 283.62180368833515 L 215.41796875 286.6169131360831 L 218.25 289.62454139063834 L 220.88671875 292.80954487020847 L 223.32812499999997 296.1595250861296 L 225.57421875 299.6529903292462 L 227.625 303.25726768252315 L 229.578125 307.1317687211995 L 231.43359375 311.2918178650366 L 233.19140624999997 315.75089955739264 L 234.8515625 320.5194876687489 L 236.51171874999997 325.94311063388074 L 238.07421875 331.7752964139159 L 239.5390625 338.0258108089656 L 241.00390625 345.2068462513064 L 242.37109375 352.9456766253409 L 243.64062499999997 361.24351038927085 L 244.91015625 370.8770810757633 L 246.08203125 381.25648744054115 L 247.25390625 393.4473533970941 L 248.2342700179899 405.5" stroke-linecap="round" stroke-linejoin="round" stroke-miterlimit="10" stroke-width="2.5" stroke-opacity="0.9" stroke-dasharray=""/></g><g><path fill="none" stroke="#f5f5f5" class="dcg-svg-curve" paint-order="fill stroke markers" d=" M 268.9630166316851 -5.5 L 268.9630166316851 -5.5 L 269.32421875 5.485245137174957 L 270.30078125 29.455514631443236 L 271.27734375 49.0066254137617 L 272.3515625 66.73298634466352 L 273.5234375 82.68812252289774 L 274.6953125 95.97449526532392 L 275.96484374999994 108.06852950832752 L 277.234375 118.30725002326193 L 278.6015625 127.71101721446757 L 279.96875 135.7814800722233 L 281.43359375 143.24826153581887 L 282.8984375 149.73034065303858 L 284.4609375 155.76424890332663 L 286.12109375 161.36307916238977 L 287.87890625 166.5461951935763 L 289.63671874999994 171.0999600598016 L 291.4921875 175.34297439479363 L 293.4453125 179.29009358985425 L 295.49609375 182.95790285121413 L 297.74218749999994 186.50925335723656 L 300.0859375 189.78334313484945 L 302.625 192.91734385142914 L 305.359375 195.89403727035528 L 308.38671875 198.79160998430845 L 311.70703125 201.5742332403775 L 315.41796874999994 204.2847128595945 L 319.51953124999994 206.88271348902373 L 323.81640625 209.24236579956556 L 328.50390625 211.4755255562169 L 333.58203125 213.57069486197494 L 339.1484375 215.55576381238816 L 345.203125 217.41808182003564 L 351.94140625 219.20011818425618 L 359.36328125 220.88128428050595 L 367.66406249999994 222.4852007503651 L 377.03906249999994 224.02149796118337 L 387.68359375 225.4908690666406 L 399.5 226.85808330259897" stroke-linecap="round" stroke-linejoin="round" stroke-miterlimit="10" stroke-width="2.5" stroke-opacity="0.9" stroke-dasharray=""/></g></g></g><g id="labels-2833f5f5"/></g></svg>